<?xml version="1.0" encoding="utf-8"?>
<svg viewBox="0 10.45 189.683 40.208" xmlns="http://www.w3.org/2000/svg">
  <g transform="matrix(1, 0, 0, 1, -0.608, 3.8)">
    <path fill="#1ABC9C" d="M181,42.1c0-1.3,0.4-2.3,1.1-3s1.7-1,3.1-1c1.3,0,2.3,0.3,3,1s1.1,1.7,1.1,3c0,1.2-0.4,2.2-1.1,2.9 s-1.7,1.1-3,1.1c-1.3,0-2.3-0.3-3-1S181,43.4,181,42.1z"/>
  </g>
  <path d="M 6.839 12.312 L 6.839 12.209 Q 6.944 12.188 6.996 12.163 Q 7.047 12.138 7.072 12.093 Q 7.098 12.047 7.098 11.972 Q 7.098 11.9 7.081 11.818 Q 7.064 11.735 7.032 11.632 L 6.955 11.361 L 5.976 11.361 L 5.905 11.567 Q 5.85 11.722 5.834 11.802 Q 5.817 11.882 5.817 11.947 Q 5.817 12.073 5.881 12.131 Q 5.945 12.19 6.077 12.209 L 6.077 12.312 L 5.181 12.312 L 5.181 12.209 Q 5.298 12.19 5.385 12.073 Q 5.472 11.955 5.554 11.737 L 6.43 9.412 L 6.762 9.412 L 7.475 11.754 Q 7.526 11.917 7.565 12.003 Q 7.604 12.089 7.658 12.138 Q 7.713 12.186 7.807 12.209 L 7.807 12.312 Z M 6.033 11.178 L 6.911 11.178 L 6.512 9.824 Z M 9.58 10.765 L 9.379 10.765 Q 9.332 10.639 9.269 10.566 Q 9.206 10.494 9.127 10.464 Q 9.047 10.435 8.931 10.435 Q 8.763 10.435 8.664 10.514 Q 8.564 10.592 8.564 10.729 Q 8.564 10.825 8.604 10.888 Q 8.644 10.951 8.728 11.006 Q 8.812 11.061 9.024 11.151 Q 9.238 11.243 9.355 11.321 Q 9.471 11.399 9.537 11.502 Q 9.603 11.604 9.603 11.747 Q 9.603 11.913 9.547 12.026 Q 9.49 12.14 9.387 12.211 Q 9.284 12.283 9.142 12.314 Q 9.001 12.346 8.833 12.346 Q 8.656 12.346 8.491 12.319 Q 8.325 12.293 8.167 12.251 L 8.167 11.812 L 8.373 11.812 Q 8.43 12.005 8.541 12.093 Q 8.652 12.18 8.847 12.18 Q 8.923 12.18 8.995 12.164 Q 9.068 12.148 9.125 12.111 Q 9.181 12.075 9.215 12.012 Q 9.248 11.949 9.248 11.854 Q 9.248 11.747 9.206 11.68 Q 9.164 11.613 9.076 11.557 Q 8.988 11.502 8.766 11.407 Q 8.574 11.327 8.459 11.252 Q 8.344 11.176 8.277 11.073 Q 8.211 10.97 8.211 10.83 Q 8.211 10.658 8.305 10.53 Q 8.398 10.403 8.574 10.336 Q 8.751 10.269 8.988 10.269 Q 9.127 10.269 9.256 10.283 Q 9.385 10.296 9.58 10.336 Z M 10.707 11.143 L 10.774 11.143 Q 10.844 11.143 10.888 11.128 Q 10.94 11.109 11.003 11.064 Q 11.066 11.019 11.182 10.912 Q 11.278 10.821 11.328 10.758 Q 11.377 10.695 11.396 10.643 Q 11.413 10.599 11.413 10.555 Q 11.413 10.492 11.374 10.456 Q 11.335 10.42 11.247 10.408 L 11.247 10.305 L 12.152 10.305 L 12.152 10.408 Q 12.055 10.427 11.946 10.494 Q 11.837 10.561 11.721 10.67 L 11.238 11.128 L 11.843 11.917 Q 11.948 12.056 12.033 12.122 Q 12.118 12.188 12.219 12.209 L 12.219 12.312 L 11.413 12.312 L 11.413 12.209 Q 11.467 12.203 11.493 12.185 Q 11.52 12.167 11.52 12.125 Q 11.52 12.094 11.508 12.063 Q 11.497 12.033 11.461 11.98 Q 11.425 11.928 11.331 11.798 L 11.081 11.462 Q 11.009 11.367 10.979 11.338 Q 10.949 11.308 10.915 11.296 Q 10.881 11.283 10.825 11.283 L 10.707 11.283 L 10.707 11.787 Q 10.707 11.968 10.724 12.038 Q 10.741 12.108 10.788 12.145 Q 10.835 12.182 10.942 12.209 L 10.942 12.312 L 10.109 12.312 L 10.109 12.209 Q 10.214 12.182 10.255 12.152 Q 10.296 12.123 10.313 12.082 Q 10.331 12.041 10.339 11.971 Q 10.346 11.9 10.346 11.787 L 10.346 10.03 Q 10.346 9.828 10.343 9.748 Q 10.34 9.669 10.326 9.613 Q 10.312 9.557 10.288 9.526 Q 10.264 9.494 10.223 9.475 Q 10.182 9.457 10.075 9.438 L 10.075 9.328 L 10.581 9.307 L 10.707 9.307 Z M 13.181 10.634 L 13.189 10.637 Q 13.336 10.483 13.434 10.414 Q 13.531 10.345 13.635 10.308 Q 13.739 10.271 13.863 10.271 Q 14.088 10.271 14.248 10.386 Q 14.409 10.5 14.496 10.729 Q 14.583 10.958 14.583 11.289 Q 14.583 11.632 14.479 11.868 Q 14.375 12.104 14.173 12.225 Q 13.97 12.346 13.693 12.346 Q 13.538 12.346 13.4 12.317 Q 13.263 12.289 13.111 12.218 L 12.964 12.346 L 12.82 12.312 L 12.82 10.03 Q 12.82 9.828 12.816 9.748 Q 12.813 9.669 12.8 9.613 Q 12.786 9.557 12.762 9.526 Q 12.738 9.494 12.697 9.475 Q 12.656 9.457 12.549 9.438 L 12.549 9.328 L 13.057 9.307 L 13.181 9.307 Z M 13.181 11.556 Q 13.181 11.718 13.195 11.813 Q 13.21 11.909 13.245 11.972 Q 13.279 12.035 13.346 12.087 Q 13.412 12.14 13.494 12.16 Q 13.575 12.18 13.676 12.18 Q 13.928 12.18 14.058 11.974 Q 14.189 11.768 14.189 11.357 Q 14.189 10.941 14.07 10.732 Q 13.951 10.523 13.712 10.523 Q 13.592 10.523 13.508 10.56 Q 13.424 10.597 13.341 10.674 Q 13.258 10.752 13.22 10.828 Q 13.181 10.903 13.181 11 Z M 15.761 10.653 L 15.791 10.66 Q 15.906 10.519 16.005 10.438 Q 16.103 10.357 16.218 10.313 Q 16.332 10.269 16.477 10.269 Q 16.599 10.269 16.698 10.282 L 16.698 10.765 L 16.46 10.765 Q 16.41 10.651 16.353 10.6 Q 16.297 10.548 16.198 10.548 Q 16.122 10.548 16.048 10.592 Q 15.973 10.637 15.904 10.72 Q 15.835 10.804 15.808 10.878 Q 15.782 10.951 15.782 11.052 L 15.782 11.787 Q 15.782 11.978 15.805 12.051 Q 15.828 12.123 15.882 12.157 Q 15.935 12.19 16.043 12.209 L 16.043 12.312 L 15.196 12.312 L 15.196 12.209 Q 15.276 12.184 15.311 12.165 Q 15.345 12.146 15.371 12.113 Q 15.396 12.079 15.408 12.01 Q 15.421 11.94 15.421 11.793 L 15.421 10.878 Q 15.421 10.744 15.417 10.662 Q 15.413 10.58 15.387 10.53 Q 15.362 10.481 15.311 10.457 Q 15.259 10.433 15.165 10.416 L 15.165 10.307 L 15.656 10.286 L 15.784 10.286 Z M 19.222 12.312 L 18.395 12.312 L 18.395 12.209 Q 18.477 12.184 18.513 12.165 Q 18.548 12.146 18.573 12.113 Q 18.597 12.079 18.61 12.009 Q 18.624 11.938 18.624 11.795 L 18.624 11.245 Q 18.624 11.098 18.616 10.979 Q 18.607 10.859 18.587 10.782 Q 18.567 10.706 18.539 10.663 Q 18.511 10.62 18.472 10.589 Q 18.433 10.559 18.383 10.541 Q 18.332 10.523 18.25 10.523 Q 18.168 10.523 18.095 10.556 Q 18.021 10.588 17.933 10.668 Q 17.845 10.748 17.805 10.825 Q 17.765 10.903 17.765 11.004 L 17.765 11.787 Q 17.765 11.968 17.782 12.038 Q 17.799 12.108 17.846 12.145 Q 17.893 12.182 18 12.209 L 18 12.312 L 17.177 12.312 L 17.177 12.209 Q 17.259 12.184 17.294 12.165 Q 17.329 12.146 17.353 12.113 Q 17.377 12.079 17.39 12.01 Q 17.404 11.94 17.404 11.793 L 17.404 10.878 Q 17.404 10.744 17.4 10.662 Q 17.396 10.58 17.37 10.53 Q 17.345 10.481 17.294 10.457 Q 17.242 10.433 17.148 10.416 L 17.148 10.305 L 17.639 10.286 L 17.767 10.286 L 17.744 10.628 L 17.774 10.637 Q 17.929 10.479 18.025 10.412 Q 18.12 10.345 18.218 10.308 Q 18.315 10.271 18.424 10.271 Q 18.538 10.271 18.627 10.297 Q 18.716 10.324 18.785 10.378 Q 18.853 10.433 18.897 10.514 Q 18.941 10.595 18.963 10.708 Q 18.985 10.821 18.985 10.996 L 18.985 11.787 Q 18.985 11.932 18.993 11.997 Q 19.002 12.062 19.023 12.098 Q 19.044 12.134 19.084 12.158 Q 19.124 12.182 19.222 12.209 Z" transform="matrix(12.457294, 0.076645, 0, 12.506976, -63.644001, -105.750824)" style="fill: rgb(255, 255, 255); white-space: pre;"/>
</svg>